<?xml version="1.0" encoding="UTF-8"?>
<svg width="248px" height="64px" viewBox="0 0 248 64" version="1.1" xmlns="http://www.w3.org/2000/svg" xmlns:xlink="http://www.w3.org/1999/xlink">
    <!-- Generator: Sketch 54.1 (76490) - https://sketchapp.com -->
    <title>cofee</title>
    <desc>Created with Sketch.</desc>
    <g id="Page-1" stroke="none" stroke-width="1" fill="none" fill-rule="evenodd">
        <path d="M22.0195928,18.548 C17.9534949,18.548 14.3527698,19.4948573 11.2073744,21.3874258 C8.06064398,23.2807975 5.60949942,25.8917993 3.84774458,29.2284562 C2.08261168,32.5715109 1.19959277,36.3042727 1.19959277,40.434 C1.19959277,44.5670367 2.04317331,48.3028934 3.72908969,51.6479656 C5.40953496,54.9821824 7.79190953,57.590816 10.8826151,59.4825409 C13.9722951,61.3736381 17.5444779,62.32 21.6095928,62.32 C24.3512464,62.32 26.914406,61.9710882 29.3003857,61.2740604 C31.6770344,60.5797586 33.5621114,59.6903208 34.9566567,58.6115217 C36.2944482,57.5766264 36.9355928,56.5725697 36.9355928,55.604 C36.9355928,54.6309012 36.6642568,53.8640821 36.1246273,53.2775283 C35.5953607,52.7022385 34.8689996,52.414 33.9095928,52.414 C33.3856328,52.414 32.9600655,52.5060145 32.6278869,52.6831765 C32.2483089,52.8856181 31.7943717,53.1968893 31.2575928,53.626 C30.5864292,54.1293727 30.051675,54.4952572 29.6231996,54.7392136 C27.7967076,55.6524596 25.4261203,56.104 22.5115928,56.104 C19.6877685,56.104 17.1642682,55.4235055 14.9515441,54.0618292 C12.7409196,52.7014449 11.0242597,50.828725 9.80751866,48.4518356 C8.59492622,46.0830503 7.98959277,43.4083211 7.98959277,40.434 C7.98959277,37.5129849 8.60928403,34.8511292 9.84955748,32.4551464 C11.0945643,30.0500196 12.8536243,28.1632859 15.1203449,26.8032535 C17.3870721,25.4432172 19.990738,24.764 22.9215928,24.764 C23.9373827,24.764 25.0602605,24.8762878 26.2910355,25.100065 C27.5363778,25.3264909 28.5083669,25.6123701 29.2516415,25.9861708 C29.9926505,26.4421764 30.5407072,26.8460076 30.8321978,27.1489039 C31.5283857,27.6308802 32.0740434,27.976907 32.4638869,28.1848235 C32.7921741,28.3599101 33.2743851,28.454 33.9095928,28.454 C34.6875481,28.454 35.3109373,28.1534374 35.8179753,27.5311635 C36.347094,26.8817906 36.6075928,26.1594985 36.6075928,25.346 C36.6075928,23.4351173 35.2999158,21.8409969 32.587626,20.5494303 C29.7907598,19.2175892 26.2687205,18.548 22.0195928,18.548 Z M86.5869557,40.516 C86.5869557,36.3352612 85.6510655,32.5649606 83.779877,29.1968215 C81.9100961,25.8312158 79.3640193,23.2184877 76.1355785,21.3507947 C72.9052172,19.4819907 69.3427099,18.548 65.4389557,18.548 C61.5352014,18.548 57.9726941,19.4819907 54.7423328,21.3507947 C51.5138921,23.2184877 48.9678152,25.8312158 47.0980343,29.1968215 C45.2268459,32.5649606 44.2909557,36.3352612 44.2909557,40.516 C44.2909557,44.6958585 45.2264236,48.4377301 47.0963678,51.7502028 C48.9660415,55.0621963 51.5126269,57.6487804 54.7423328,59.5172053 C57.9726941,61.3860093 61.5352014,62.32 65.4389557,62.32 C69.3427099,62.32 72.9052172,61.3860093 76.1355785,59.5172053 C79.3652844,57.6487804 81.9118698,55.0621963 83.7815435,51.7502028 C85.6514878,48.4377301 86.5869557,44.6958585 86.5869557,40.516 Z M79.7969557,40.516 C79.7969557,43.4935678 79.1627425,46.1713565 77.8926956,48.5421107 C76.6212438,50.9154875 74.8922419,52.7720387 72.7104564,54.1037779 C70.5264553,55.4368695 68.0992358,56.104 65.4389557,56.104 C62.7786756,56.104 60.3514561,55.4368695 58.1674549,54.1037779 C55.9856694,52.7720387 54.2566675,50.9154875 52.9852157,48.5421107 C51.7151688,46.1713565 51.0809557,43.4935678 51.0809557,40.516 C51.0809557,37.4847491 51.7146795,34.7667781 52.9840617,32.3690561 C54.2554211,29.9675995 55.9847496,28.0965227 58.1674549,26.7642221 C60.3514561,25.4311305 62.7786756,24.764 65.4389557,24.764 C68.0992358,24.764 70.5264553,25.4311305 72.7104564,26.7642221 C74.8931617,28.0965227 76.6224902,29.9675995 77.8938496,32.3690561 C79.1632319,34.7667781 79.7969557,37.4847491 79.7969557,40.516 Z M115.418319,7.872 C116.341968,7.872 117.423329,8.04274125 118.642784,8.37590647 C119.581922,8.58460385 120.172601,8.692 120.338319,8.692 C121.070705,8.692 121.689802,8.41059195 122.225353,7.82847173 C122.766336,7.24044717 123.036319,6.50092878 123.036319,5.584 C123.036319,4.41884033 122.443059,3.5631782 121.187671,2.95962621 C119.837024,2.31027658 118.270897,1.984 116.484319,1.984 C112.118847,1.984 108.768572,3.07877474 106.409289,5.25455826 C104.056077,7.42474298 102.880319,10.3380101 102.880319,14.03 L102.880319,20.27 L97.2963186,20.27 C96.3850308,20.27 95.6350103,20.5629768 95.0188729,21.1554165 C94.4077232,21.7430605 94.1063186,22.4733871 94.1063186,23.378 C94.1063186,24.2798472 94.4054809,24.9932342 95.0114586,25.5525983 C95.6278759,26.1215988 96.3809456,26.404 97.2963186,26.404 L102.880319,26.404 L102.880319,58.064 C102.880319,59.0288742 103.199812,59.8335249 103.847241,60.5049322 C104.490254,61.1717603 105.275684,61.5 106.234319,61.5 C107.249387,61.5 108.061747,61.1703466 108.703396,60.5049322 C109.350825,59.8335249 109.670319,59.0288742 109.670319,58.064 L109.670319,26.404 L118.288319,26.404 C119.257341,26.404 120.020802,26.1221067 120.607053,25.5593063 C121.189506,25.0001516 121.478319,24.2838953 121.478319,23.378 C121.478319,22.4693516 121.187368,21.7361563 120.599765,21.1485534 C120.013633,20.5624213 119.253338,20.27 118.288319,20.27 L109.670319,20.27 L109.670319,14.03 C109.670319,12.3375644 110.128175,10.8901481 111.046111,9.70571417 C111.99633,8.47962552 113.469822,7.872 115.418319,7.872 Z M147.398319,7.872 C148.321968,7.872 149.403329,8.04274125 150.622784,8.37590647 C151.561922,8.58460385 152.152601,8.692 152.318319,8.692 C153.050705,8.692 153.669802,8.41059195 154.205353,7.82847173 C154.746336,7.24044717 155.016319,6.50092878 155.016319,5.584 C155.016319,4.41884033 154.423059,3.5631782 153.167671,2.95962621 C151.817024,2.31027658 150.250897,1.984 148.464319,1.984 C144.098847,1.984 140.748572,3.07877474 138.389289,5.25455826 C136.036077,7.42474298 134.860319,10.3380101 134.860319,14.03 L134.860319,20.27 L129.276319,20.27 C128.365031,20.27 127.61501,20.5629768 126.998873,21.1554165 C126.387723,21.7430605 126.086319,22.4733871 126.086319,23.378 C126.086319,24.2798472 126.385481,24.9932342 126.991459,25.5525983 C127.607876,26.1215988 128.360946,26.404 129.276319,26.404 L134.860319,26.404 L134.860319,58.064 C134.860319,59.0288742 135.179812,59.8335249 135.827241,60.5049322 C136.470254,61.1717603 137.255684,61.5 138.214319,61.5 C139.229387,61.5 140.041747,61.1703466 140.683396,60.5049322 C141.330825,59.8335249 141.650319,59.0288742 141.650319,58.064 L141.650319,26.404 L150.268319,26.404 C151.237341,26.404 152.000802,26.1221067 152.587053,25.5593063 C153.169506,25.0001516 153.458319,24.2838953 153.458319,23.378 C153.458319,22.4693516 153.167368,21.7361563 152.579765,21.1485534 C151.993633,20.5624213 151.233338,20.27 150.268319,20.27 L141.650319,20.27 L141.650319,14.03 C141.650319,12.3375644 142.108175,10.8901481 143.026111,9.70571417 C143.97633,8.47962552 145.449822,7.872 147.398319,7.872 Z M199.173475,38.8650986 C199.117356,35.021231 198.183628,31.5587163 196.372332,28.4688597 C194.556338,25.3709862 192.157174,22.9451653 189.169835,21.1847692 C186.185092,19.4259025 182.992719,18.548 179.583681,18.548 C176.121521,18.548 172.889626,19.4523985 169.878487,21.2644116 C166.868061,23.0759952 164.442481,25.674831 162.598025,29.0696986 C160.753496,32.4647021 159.829681,36.4143431 159.829681,40.926 C159.829681,45.0533197 160.725228,48.7424355 162.514941,52.0013165 C164.300651,55.2529079 166.829116,57.7813729 170.108596,59.5944189 C173.393619,61.4105288 177.205373,62.32 181.551681,62.32 C184.218336,62.32 186.831693,61.7866619 189.395374,60.7184615 C191.962275,59.6489193 194.012071,58.3445039 195.577857,56.7810303 C196.565686,55.9413761 197.041681,55.0369843 197.041681,54.046 C197.041681,53.3016506 196.778082,52.6598424 196.237687,52.0959527 C195.703931,51.5389896 195.055581,51.266 194.261681,51.266 C193.606805,51.266 192.916728,51.4759081 192.187732,51.9049333 C190.900249,53.1276992 189.420067,54.1293184 187.749124,54.9090916 C186.035631,55.7087219 183.833367,56.104 181.141681,56.104 C177.193003,56.104 173.833816,54.8567067 171.088725,52.3663153 C168.342136,49.8745643 166.770166,46.5606806 166.375964,42.4497263 L166.323443,41.902 L195.737681,41.902 C196.653929,41.902 197.437279,41.6052766 198.110674,41.0040312 C198.773644,40.412093 199.122605,39.7075361 199.173475,38.8650986 Z M179.583681,24.764 C182.649476,24.764 185.397217,25.7321158 187.809029,27.6615656 C190.237517,29.6043562 191.603331,32.1059518 191.891681,35.186 L191.891681,36.342 L166.59359,36.342 L166.711107,35.7453718 C167.443824,32.0254277 168.97959,29.2525153 171.32506,27.4505083 C173.65573,25.6598713 176.414445,24.764 179.583681,24.764 Z M246.856838,38.8650986 C246.800719,35.021231 245.866991,31.5587163 244.055695,28.4688597 C242.2397,25.3709862 239.840537,22.9451653 236.853198,21.1847692 C233.868455,19.4259025 230.676082,18.548 227.267044,18.548 C223.804883,18.548 220.572989,19.4523985 217.56185,21.2644116 C214.551424,23.0759952 212.125844,25.674831 210.281388,29.0696986 C208.436859,32.4647021 207.513044,36.4143431 207.513044,40.926 C207.513044,45.0533197 208.408591,48.7424355 210.198304,52.0013165 C211.984014,55.2529079 214.512479,57.7813729 217.791959,59.5944189 C221.076981,61.4105288 224.888736,62.32 229.235044,62.32 C231.901699,62.32 234.515056,61.7866619 237.078737,60.7184615 C239.645638,59.6489193 241.695434,58.3445039 243.26122,56.7810303 C244.249049,55.9413761 244.725044,55.0369843 244.725044,54.046 C244.725044,53.3016506 244.461445,52.6598424 243.92105,52.0959527 C243.387294,51.5389896 242.738944,51.266 241.945044,51.266 C241.290168,51.266 240.600091,51.4759081 239.871095,51.9049333 C238.583612,53.1276992 237.103429,54.1293184 235.432487,54.9090916 C233.718994,55.7087219 231.51673,56.104 228.825044,56.104 C224.876366,56.104 221.517179,54.8567067 218.772088,52.3663153 C216.025499,49.8745643 214.453528,46.5606806 214.059327,42.4497263 L214.006806,41.902 L243.421044,41.902 C244.337292,41.902 245.120642,41.6052766 245.794036,41.0040312 C246.457007,40.412093 246.805968,39.7075361 246.856838,38.8650986 Z M227.267044,24.764 C230.332839,24.764 233.08058,25.7321158 235.492392,27.6615656 C237.92088,29.6043562 239.286694,32.1059518 239.575044,35.186 L239.575044,36.342 L214.276953,36.342 L214.39447,35.7453718 C215.127186,32.0254277 216.662953,29.2525153 219.008423,27.4505083 C221.339093,25.6598713 224.097808,24.764 227.267044,24.764 Z" id="cofee" stroke="#000000" fill="#000000" fill-rule="nonzero"></path>
    </g>
</svg>