<?xml version="1.0" encoding="UTF-8"?>
<svg width="763px" height="748px" viewBox="0 0 763 748" version="1.1" xmlns="http://www.w3.org/2000/svg" xmlns:xlink="http://www.w3.org/1999/xlink">
    <!-- Generator: Sketch 54.1 (76490) - https://sketchapp.com -->
    <title>Coffee latte</title>
    <desc>Created with Sketch.</desc>
    <g id="Page-1" stroke="none" stroke-width="1" fill="none" fill-rule="evenodd">
        <g id="Coffee-latte" transform="translate(0.000000, 0.000000)">
            <path d="M63.6408995,506 L570.748367,506 C552.684461,529.388791 533.80036,550.516248 514.096064,569.382373 C494.391768,588.248498 465.198105,604.153697 426.515076,617.097969 L205.314549,617.097969 C163.291752,606.301794 131.008596,589.400089 108.465082,566.392854 C85.9215672,543.38562 70.9801732,523.254668 63.6408995,506 Z" id="Rectangle" fill="#5E1F00"></path>
            <polygon id="Rectangle" fill="#CFB9AE" points="17.1105651 330 610.06091 330 570.748367 505.726947 63.6408995 505.726947"></polygon>
            <polygon id="Rectangle" fill="#CED8D9" points="17.1105651 232 610.06091 232 604 330 29 330"></polygon>
            <g id="chocolate" fill="#000000" fill-rule="nonzero">
                <path d="M273.939596,137.144493 C276.850614,143.666526 279.60811,149.825898 280.81267,155.979421 C281.952277,161.799531 281.597995,169.520682 277.193088,173.71467 C272.693704,178.008099 272.551991,185.103368 276.886042,189.566427 C279.10621,191.853525 282.070371,193 285.040436,193 C287.862883,193 290.685331,191.964663 292.88188,189.870594 C302.17588,181.014667 305.9667,166.748088 303.020253,151.715241 C301.331509,143.069893 297.924495,135.448181 294.629672,128.072141 C293.655395,125.890331 292.68112,123.714371 291.759986,121.520862 C284.077969,103.153884 283.599689,91.6364993 290.254287,85.2665504 C294.747766,80.967273 294.877669,73.8720039 290.537713,69.4206439 C286.197758,64.969284 279.035355,64.8464464 274.541875,69.1457238 C253.698278,89.0744819 266.611862,119.953235 270.857341,130.101868 C271.849331,132.459159 272.894465,134.798902 273.939596,137.144493 Z" id="Path"></path>
                <path d="M345.96374,127 C348.933543,127 351.897444,125.853526 354.117417,123.566427 C358.451089,119.103368 358.309388,112.008099 353.8104,107.720521 C349.399974,103.520682 349.051628,95.7995313 350.191135,89.9794226 C351.395589,83.8258995 354.146938,77.6665274 357.063605,71.1444945 C358.108645,68.8047519 359.153686,66.4591588 360.139685,64.1018692 C364.384793,53.9532352 377.303147,23.0744815 356.461378,3.14572325 C351.968294,-1.1535527 344.80652,-1.03071659 340.466944,3.42064339 C336.127369,7.87200336 336.251358,14.967274 340.750345,19.2665515 C347.404361,25.6365004 346.926122,37.1538831 339.238874,55.5208627 C338.323725,57.7143718 337.349535,59.8903325 336.375345,62.0721421 C333.08081,69.4423314 329.674096,77.0698923 327.979595,85.7093916 C325.033407,100.748088 328.823894,115.014669 338.122984,123.870594 C340.31934,125.964664 343.141539,127 345.96374,127 Z" id="Path"></path>
                <path d="M727.076292,314.617908 C709.187685,296.083262 683.411324,283.416077 652.51811,277.99727 C644.816636,276.639656 636.998739,275.818095 629.17502,275.43936 C629.745499,261.65928 629.861923,250.116641 629.809532,241.603873 C629.704751,224.176294 615.442762,210 598.019852,210 L485.908981,210 C479.750131,210 474.755524,214.993458 474.755524,221.163903 C474.755524,227.328524 479.750131,232.32781 485.908981,232.32781 L598.019852,232.32781 C603.218201,232.32781 607.473513,236.54632 607.502619,241.737885 C607.723826,278.463404 604.848142,373.135183 573.524159,458.833885 C542.69498,543.169146 493.360142,596.197695 426.515076,617.097969 L205.314549,617.097969 C138.399628,596.232655 89.0065779,543.221587 58.1599358,458.833885 C26.8359514,373.141009 23.9602696,278.463404 24.1814752,241.737885 C24.2105824,236.552147 28.4658929,232.32781 33.6642432,232.32781 L435.764994,232.32781 C441.929666,232.32781 446.918452,227.328524 446.918452,221.163903 C446.918452,214.999284 441.929666,210 435.764994,210 L33.6642432,210 C16.241333,210 1.97934397,224.176294 1.87456127,241.603873 C1.64753482,279.541338 4.63964101,377.394481 37.2093657,466.507613 C55.4938164,516.523772 80.5134195,557.007494 111.575448,586.845885 C123.770904,598.551671 136.921038,608.643468 150.979284,617.103797 L105.888117,617.103797 C99.7292654,617.103797 94.7404805,622.097255 94.7404805,628.267702 C94.7404805,634.432321 99.7292654,639.425779 105.888117,639.425779 L608.317589,639.425779 L601.326305,667.015075 C600.674328,669.596292 598.357482,671.402559 595.697185,671.402559 L576.324166,671.402559 C576.207741,671.396733 576.091317,671.379254 575.969072,671.379254 L55.7092012,671.379254 C55.5927783,671.379254 55.4763524,671.396733 55.3541072,671.402559 L35.9869103,671.402559 C33.3266118,671.402559 31.0097671,669.596292 30.3577904,667.015075 L23.3606836,639.425779 L55.7092012,639.425779 C61.8680524,639.425779 66.8626596,634.432321 66.8626596,628.267702 C66.8626596,622.097255 61.8680524,617.103797 55.7092012,617.103797 L18.6338532,617.103797 C12.8475615,617.103797 7.49203941,619.725799 3.93527379,624.299738 C0.378508178,628.873676 -0.843947217,634.717828 0.58225124,640.328914 L8.73195884,672.503802 C11.8987024,684.996188 23.1045499,693.724543 35.9869103,693.724543 L47.0355846,693.724543 L55.4181409,726.779257 C58.5848845,739.277471 69.790732,748 82.66727,748 L549.011003,748 C561.887541,748 573.099209,739.277471 576.265953,726.779257 L584.642688,693.724543 L595.697185,693.724543 C608.573723,693.724543 619.779571,684.996188 622.946314,672.503802 L631.101844,640.328914 C632.52222,634.712002 631.299765,628.86785 627.748821,624.299738 C624.192056,619.725799 618.836534,617.103797 613.04442,617.103797 L480.70481,617.103797 C494.763056,608.643468 507.913192,598.557498 520.108647,586.845885 C521.69784,585.313471 523.263748,583.734442 524.829657,582.149587 C527.152322,582.207855 529.463346,582.242814 531.751087,582.242814 C584.974498,582.242814 627.888531,567.716919 632.03906,566.266078 C662.72853,556.745294 692.265398,538.630169 715.218468,515.24773 C740.150753,489.855091 756.112536,459.882686 761.38074,428.5818 C767.999468,389.275067 753.888831,342.411138 727.076292,314.617908 L727.076292,314.617908 Z M554.645944,721.290532 C553.993967,723.871749 551.677121,725.678016 549.016824,725.678016 L82.66727,725.678016 C80.006973,725.678016 77.6901268,723.871749 77.0381502,721.290532 L70.0526866,693.724543 L561.631407,693.724543 L554.645944,721.290532 Z M594.474728,466.507613 C609.248984,426.082158 617.934244,383.85626 622.998706,346.239261 C624.419082,346.309181 625.827818,346.402408 627.21909,346.553901 C643.652392,348.27277 658.973843,357.152619 669.254117,370.915221 C679.319006,384.386488 683.265793,400.497238 680.355184,416.28752 C673.724814,452.302186 642.720997,485.065567 601.384516,499.742954 C601.180773,499.812874 591.977425,503.000065 577.773649,505.726947 C583.839361,493.391882 589.421911,480.328481 594.474728,466.507613 L594.474728,466.507613 Z M739.388172,424.87021 C730.516634,477.578291 683.580139,526.976823 625.251517,544.998722 C625.111808,545.039509 624.960457,545.086122 624.820748,545.138562 C624.337586,545.307535 589.456837,557.409535 544.540306,559.536271 C551.554876,550.493275 558.16196,540.786037 564.361559,530.43204 C589.631473,527.489571 607.595758,521.225897 608.829857,520.788896 C657.553466,503.489505 694.244613,464.054584 702.29536,420.331232 C706.282895,398.67349 700.752738,375.786319 687.11944,357.543006 C673.125228,338.810253 652.139731,326.714081 629.547578,324.348452 C628.255266,324.208612 626.951313,324.115385 625.64736,324.033811 C626.613683,314.740269 627.36462,305.854592 627.946742,297.48749 C663.467826,299.287932 694.524032,313.015574 711.033011,330.128512 C732.88587,352.782615 744.813549,392.63123 739.388172,424.87021 L739.388172,424.87021 Z" id="Shape"></path>
            </g>
            <text id="espresso" font-family="Quicksand-Bold, Quicksand" font-size="50" font-weight="bold" fill="#FFFFFF">
                <tspan x="215" y="580">espresso</tspan>
            </text>
            <text id="steamed-milk" font-family="Quicksand-Bold, Quicksand" font-size="50" font-weight="bold" fill="#FFFFFF">
                <tspan x="151" y="436">steamed milk</tspan>
            </text>
            <text id="milk-foam" font-family="Quicksand-Bold, Quicksand" font-size="50" font-weight="bold" fill="#FFFFFF">
                <tspan x="192" y="300">milk foam</tspan>
            </text>
        </g>
    </g>
</svg>